<?xml version="1.0" standalone="no"?><!DOCTYPE svg PUBLIC "-//W3C//DTD SVG 1.1//EN" "http://www.w3.org/Graphics/SVG/1.1/DTD/svg11.dtd"><svg t="1575452085497" class="icon" viewBox="0 0 1024 1024" version="1.1" xmlns="http://www.w3.org/2000/svg" p-id="1770" xmlns:xlink="http://www.w3.org/1999/xlink" width="200" height="200"><defs><style type="text/css"></style></defs><path d="M567.001395 495.286374 966.070272 96.236851c10.904781-10.905395 10.904781-28.573798 0-39.481242-10.907853-10.905395-28.575949-10.905395-39.482778 0L527.519539 455.806157 128.45271 56.75561c-10.905805-10.905395-28.574925-10.905395-39.481754 0-10.906829 10.906419-10.906829 28.574822 0 39.481242l399.067955 399.049523L88.970957 894.337946c-10.906829 10.906419-10.906829 28.573798 0 39.480218 5.45239 5.452186 12.652646 8.177254 19.741389 8.177254 7.197184 0 14.285926-2.725069 19.740365-8.177254l399.065907-399.052595L926.587494 933.818061c5.454438 5.452186 12.652646 8.177254 19.740365 8.177254 7.198208 0 14.28695-2.725069 19.742413-8.177254 10.904781-10.906419 10.904781-28.573798 0-39.480218L567.001395 495.286374z" p-id="1771"></path></svg>