<?xml version="1.0" standalone="no"?><!DOCTYPE svg PUBLIC "-//W3C//DTD SVG 1.1//EN" "http://www.w3.org/Graphics/SVG/1.1/DTD/svg11.dtd"><svg t="1575443930027" class="icon" viewBox="0 0 1024 1024" version="1.1" xmlns="http://www.w3.org/2000/svg" p-id="3913" xmlns:xlink="http://www.w3.org/1999/xlink" width="200" height="200"><defs><style type="text/css"></style></defs><path d="M949.12 386.592c-4.864-15.008-17.856-25.952-33.44-28.192l-256.992-37.344-114.944-232.896c-6.976-14.144-21.376-23.104-37.152-23.104-15.776 0-30.176 8.96-37.152 23.104l-114.944 232.896L97.472 358.4c-15.616 2.272-28.576 13.184-33.44 28.192s-0.8 31.456 10.496 42.464l185.984 181.28-43.904 255.968c-2.656 15.552 3.712 31.264 16.48 40.544 12.768 9.28 29.664 10.496 43.648 3.136l229.888-120.864 229.856 120.864c6.048 3.168 12.672 4.768 19.264 4.768 8.576 0 17.152-2.656 24.352-7.904 12.768-9.28 19.136-24.992 16.48-40.544l-43.904-255.968 185.984-181.28C949.92 418.048 953.984 401.6 949.12 386.592z" p-id="3914" fill="#ffffff"></path></svg>